<svg xmlns="http://www.w3.org/2000/svg" xmlns:xlink="http://www.w3.org/1999/xlink" width="29.996" height="29.996" viewBox="0 0 29.996 29.996">
  <defs>
    <linearGradient id="linear-gradient" x1="0.5" x2="0.5" y2="1" gradientUnits="objectBoundingBox">
      <stop offset="0" stop-color="#ff4747"/>
      <stop offset="1" stop-color="#b91919"/>
    </linearGradient>
  </defs>
  <g id="discount_1_" data-name="discount (1)" transform="translate(0)">
    <g id="Group_143" data-name="Group 143" transform="translate(0 0)">
      <g id="Group_142" data-name="Group 142">
        <path id="Path_123" data-name="Path 123" d="M29.823,14.422l-1.9-2.885.19-3.457a1.047,1.047,0,0,0-.573-.991L24.462,5.534,22.908,2.458a1.051,1.051,0,0,0-.992-.573l-3.457.19L15.574.173a1.046,1.046,0,0,0-1.152,0l-2.885,1.9L8.08,1.885a1.043,1.043,0,0,0-.992.573L5.534,5.534,2.458,7.088a1.047,1.047,0,0,0-.573.992l.19,3.457-1.9,2.885a1.046,1.046,0,0,0,0,1.152l1.9,2.885-.19,3.457a1.047,1.047,0,0,0,.573.992l3.076,1.554,1.554,3.076a1.05,1.05,0,0,0,.991.573l3.457-.19,2.885,1.9a1.047,1.047,0,0,0,1.152,0l2.885-1.9,3.457.19a1.047,1.047,0,0,0,.992-.573l1.554-3.076,3.076-1.554a1.047,1.047,0,0,0,.573-.992l-.19-3.457,1.9-2.885A1.047,1.047,0,0,0,29.823,14.422ZM25.982,17.6a1.046,1.046,0,0,0-.171.633l.171,3.119-2.772,1.4a1.046,1.046,0,0,0-.462.462l-1.4,2.772-3.119-.171a1.055,1.055,0,0,0-.633.171L15,27.7l-2.6-1.713a1.048,1.048,0,0,0-.576-.173h-.058l-3.119.171-1.4-2.772a1.046,1.046,0,0,0-.462-.462l-2.772-1.4.172-3.119a1.048,1.048,0,0,0-.171-.633L2.3,15l1.713-2.6a1.046,1.046,0,0,0,.171-.633L4.012,8.648l2.772-1.4a1.046,1.046,0,0,0,.462-.462l1.4-2.772,3.118.172a1.033,1.033,0,0,0,.633-.171L15,2.3l2.6,1.713a1.047,1.047,0,0,0,.633.171l3.119-.172,1.4,2.772a1.046,1.046,0,0,0,.462.462l2.772,1.4-.171,3.119a1.045,1.045,0,0,0,.171.633L27.7,15Z" transform="translate(0 0)" fill="url(#linear-gradient)"/>
      </g>
    </g>
    <g id="Group_145" data-name="Group 145" transform="translate(6.976 7.325)">
      <g id="Group_144" data-name="Group 144">
        <path id="Path_124" data-name="Path 124" d="M122.73,125.028a3.662,3.662,0,1,0,3.662,3.662A3.667,3.667,0,0,0,122.73,125.028Zm0,5.232a1.57,1.57,0,1,1,1.57-1.57A1.571,1.571,0,0,1,122.73,130.26Z" transform="translate(-119.068 -125.028)" fill="url(#linear-gradient)"/>
      </g>
    </g>
    <g id="Group_147" data-name="Group 147" transform="translate(15.346 15.696)">
      <g id="Group_146" data-name="Group 146">
        <path id="Path_125" data-name="Path 125" d="M265.614,267.911a3.662,3.662,0,1,0,3.662,3.662A3.666,3.666,0,0,0,265.614,267.911Zm0,5.232a1.57,1.57,0,1,1,1.57-1.57A1.571,1.571,0,0,1,265.614,273.143Z" transform="translate(-261.952 -267.911)" fill="url(#linear-gradient)"/>
      </g>
    </g>
    <g id="Group_149" data-name="Group 149" transform="translate(7.987 7.987)">
      <g id="Group_148" data-name="Group 148">
        <path id="Path_126" data-name="Path 126" d="M150.048,136.645a1.046,1.046,0,0,0-1.48,0L136.64,148.574a1.046,1.046,0,1,0,1.479,1.48l11.928-11.928A1.046,1.046,0,0,0,150.048,136.645Z" transform="translate(-136.333 -136.339)" fill="url(#linear-gradient)"/>
      </g>
    </g>
  </g>
</svg>
